<svg width="35" height="36" viewBox="0 0 35 36" fill="none" xmlns="http://www.w3.org/2000/svg">
<path d="M29.1667 26.7502C29.5384 26.7506 29.8959 26.8929 30.1662 27.1481C30.4364 27.4032 30.5991 27.752 30.6209 28.123C30.6427 28.4941 30.5219 28.8595 30.2834 29.1445C30.0448 29.4295 29.7064 29.6127 29.3373 29.6566L29.1667 29.6668H5.83333C5.46163 29.6664 5.10412 29.5241 4.83384 29.2689C4.56356 29.0138 4.40091 28.665 4.37912 28.294C4.35734 27.9229 4.47807 27.5575 4.71664 27.2725C4.95521 26.9875 5.29361 26.8043 5.66271 26.7604L5.83333 26.7502H29.1667ZM29.1667 16.5418C29.5534 16.5418 29.9244 16.6955 30.1979 16.969C30.4714 17.2425 30.625 17.6134 30.625 18.0002C30.625 18.3869 30.4714 18.7579 30.1979 19.0314C29.9244 19.3049 29.5534 19.4585 29.1667 19.4585H5.83333C5.44656 19.4585 5.07563 19.3049 4.80214 19.0314C4.52865 18.7579 4.375 18.3869 4.375 18.0002C4.375 17.6134 4.52865 17.2425 4.80214 16.969C5.07563 16.6955 5.44656 16.5418 5.83333 16.5418H29.1667ZM29.1667 6.3335C29.5534 6.3335 29.9244 6.48714 30.1979 6.76063C30.4714 7.03412 30.625 7.40506 30.625 7.79183C30.625 8.1786 30.4714 8.54954 30.1979 8.82303C29.9244 9.09652 29.5534 9.25016 29.1667 9.25016H5.83333C5.44656 9.25016 5.07563 9.09652 4.80214 8.82303C4.52865 8.54954 4.375 8.1786 4.375 7.79183C4.375 7.40506 4.52865 7.03412 4.80214 6.76063C5.07563 6.48714 5.44656 6.3335 5.83333 6.3335H29.1667Z" fill="black"/>
</svg>
