<svg width="25" height="25" viewBox="0 0 25 25" fill="none" xmlns="http://www.w3.org/2000/svg">
<path d="M21.5 4.80571V20.1586C21.5 20.5097 21.3606 20.8463 21.1123 21.0945C20.8641 21.3427 20.5275 21.4822 20.1765 21.4822H4.82353C4.47251 21.4822 4.13586 21.3427 3.88765 21.0945C3.63944 20.8463 3.5 20.5097 3.5 20.1586V4.80571C3.5 4.45469 3.63944 4.11804 3.88765 3.86983C4.13586 3.62162 4.47251 3.48218 4.82353 3.48218H20.1765C20.5275 3.48218 20.8641 3.62162 21.1123 3.86983C21.3606 4.11804 21.5 4.45469 21.5 4.80571V4.80571ZM8.79412 10.3645H6.14706V18.8351H8.79412V10.3645ZM9.03235 7.45277C9.03375 7.25254 8.99569 7.05399 8.92035 6.86847C8.84502 6.68295 8.73387 6.51409 8.59328 6.37152C8.45268 6.22896 8.28537 6.11548 8.10091 6.03758C7.91646 5.95967 7.71846 5.91886 7.51824 5.91747H7.47059C7.0634 5.91747 6.6729 6.07923 6.38497 6.36715C6.09705 6.65507 5.93529 7.04558 5.93529 7.45277C5.93529 7.85995 6.09705 8.25046 6.38497 8.53838C6.6729 8.82631 7.0634 8.98806 7.47059 8.98806V8.98806C7.67083 8.99299 7.87008 8.95841 8.05696 8.8863C8.24383 8.8142 8.41467 8.70598 8.5597 8.56782C8.70474 8.42967 8.82113 8.2643 8.90223 8.08114C8.98333 7.89799 9.02755 7.70066 9.03235 7.50041V7.45277ZM18.8529 13.6892C18.8529 11.1428 17.2329 10.1528 15.6235 10.1528C15.0966 10.1264 14.5719 10.2386 14.1019 10.4783C13.6318 10.7179 13.2328 11.0767 12.9447 11.5186H12.8706V10.3645H10.3824V18.8351H13.0294V14.3298C12.9911 13.8684 13.1365 13.4105 13.4339 13.0557C13.7313 12.7008 14.1567 12.4776 14.6176 12.4345H14.7182C15.56 12.4345 16.1847 12.9639 16.1847 14.2981V18.8351H18.8318L18.8529 13.6892Z" fill="#263238"/>
</svg>
