<svg width="25" height="25" viewBox="0 0 25 25" fill="none" xmlns="http://www.w3.org/2000/svg">
<path fill-rule="evenodd" clip-rule="evenodd" d="M12.5 3.48218C10.0556 3.48218 9.7496 3.49238 8.7896 3.53618C7.8314 3.57998 7.1768 3.73238 6.6044 3.95498C6.0044 4.18058 5.4602 4.53458 5.0102 4.99298C4.55253 5.44246 4.19831 5.98627 3.9722 6.58658C3.7508 7.15898 3.5978 7.81418 3.554 8.77238C3.5108 9.73178 3.5 10.0372 3.5 12.4822C3.5 14.9272 3.5102 15.2326 3.554 16.1926C3.5978 17.1508 3.7502 17.8054 3.9728 18.3778C4.1984 18.9778 4.5524 19.522 5.0108 19.972C5.46029 20.4296 6.00411 20.7838 6.6044 21.01C7.1768 21.232 7.8314 21.3844 8.7896 21.4282C9.7496 21.472 10.0556 21.4822 12.5 21.4822C14.9444 21.4822 15.2504 21.472 16.2104 21.4282C17.1686 21.3844 17.8232 21.232 18.3956 21.0094C18.9956 20.7838 19.5398 20.4298 19.9898 19.9714C20.4475 19.5219 20.8017 18.9781 21.0278 18.3778C21.2498 17.8054 21.4022 17.1508 21.446 16.1926C21.4898 15.2326 21.5 14.9266 21.5 12.4822C21.5 10.0378 21.4898 9.73178 21.446 8.77178C21.4022 7.81358 21.2498 7.15898 21.0272 6.58658C20.8012 5.98602 20.447 5.44197 19.9892 4.99238C19.5397 4.53471 18.9959 4.18049 18.3956 3.95438C17.8232 3.73298 17.168 3.57998 16.2098 3.53618C15.2504 3.49298 14.945 3.48218 12.5 3.48218ZM12.5 5.10398C14.903 5.10398 15.188 5.11298 16.1372 5.15618C17.0144 5.19638 17.4908 5.34218 17.8082 5.46638C18.2282 5.62898 18.5282 5.82458 18.8432 6.13898C19.1582 6.45398 19.3532 6.75398 19.5158 7.17398C19.6394 7.49138 19.7858 7.96778 19.826 8.84498C19.8692 9.79418 19.8782 10.0792 19.8782 12.4822C19.8782 14.8852 19.8692 15.1702 19.826 16.1194C19.7858 16.9966 19.64 17.473 19.5158 17.7904C19.3718 18.1813 19.1419 18.535 18.8432 18.8254C18.5528 19.1242 18.1992 19.354 17.8082 19.498C17.4908 19.6216 17.0144 19.768 16.1372 19.8082C15.188 19.8514 14.9036 19.8604 12.5 19.8604C10.0964 19.8604 9.812 19.8514 8.8628 19.8082C7.9856 19.768 7.5092 19.6222 7.1918 19.498C6.80087 19.3539 6.4472 19.1241 6.1568 18.8254C5.85811 18.5349 5.62828 18.1813 5.4842 17.7904C5.3606 17.473 5.2142 16.9966 5.174 16.1194C5.1308 15.1702 5.1218 14.8852 5.1218 12.4822C5.1218 10.0792 5.1308 9.79418 5.174 8.84498C5.2142 7.96778 5.36 7.49138 5.4842 7.17398C5.6468 6.75398 5.8424 6.45398 6.1568 6.13898C6.44716 5.8402 6.80085 5.61036 7.1918 5.46638C7.5092 5.34278 7.9856 5.19638 8.8628 5.15618C9.812 5.11298 10.097 5.10398 12.5 5.10398V5.10398Z" fill="#263238"/>
<path fill-rule="evenodd" clip-rule="evenodd" d="M12.5 15.4852C12.1057 15.4852 11.7152 15.4075 11.3508 15.2566C10.9865 15.1057 10.6554 14.8845 10.3766 14.6057C10.0977 14.3268 9.87653 13.9958 9.72561 13.6314C9.5747 13.2671 9.49702 12.8766 9.49702 12.4822C9.49702 12.0879 9.5747 11.6974 9.72561 11.333C9.87653 10.9687 10.0977 10.6376 10.3766 10.3588C10.6554 10.0799 10.9865 9.85872 11.3508 9.7078C11.7152 9.55689 12.1057 9.47921 12.5 9.47921C13.2965 9.47921 14.0603 9.7956 14.6235 10.3588C15.1866 10.9219 15.503 11.6858 15.503 12.4822C15.503 13.2787 15.1866 14.0425 14.6235 14.6057C14.0603 15.1688 13.2965 15.4852 12.5 15.4852V15.4852ZM12.5 7.85621C11.2731 7.85621 10.0965 8.34359 9.22895 9.21113C8.3614 10.0787 7.87402 11.2553 7.87402 12.4822C7.87402 13.7091 8.3614 14.8857 9.22895 15.7533C10.0965 16.6208 11.2731 17.1082 12.5 17.1082C13.7269 17.1082 14.9036 16.6208 15.7711 15.7533C16.6386 14.8857 17.126 13.7091 17.126 12.4822C17.126 11.2553 16.6386 10.0787 15.7711 9.21113C14.9036 8.34359 13.7269 7.85621 12.5 7.85621V7.85621ZM18.4718 7.77221C18.4718 8.06223 18.3566 8.34036 18.1515 8.54543C17.9465 8.7505 17.6683 8.86571 17.3783 8.86571C17.0883 8.86571 16.8102 8.7505 16.6051 8.54543C16.4 8.34036 16.2848 8.06223 16.2848 7.77221C16.2848 7.4822 16.4 7.20406 16.6051 6.99899C16.8102 6.79392 17.0883 6.67871 17.3783 6.67871C17.6683 6.67871 17.9465 6.79392 18.1515 6.99899C18.3566 7.20406 18.4718 7.4822 18.4718 7.77221" fill="#263238"/>
</svg>
